<svg width="1200" height="600" viewBox="0 0 1200 600" fill="none" xmlns="http://www.w3.org/2000/svg">
  <!-- Hero Background Meridian -->
  <!-- Gradiente de fondo con colores de marca -->
  <defs>
    <linearGradient id="heroGradient" x1="0%" y1="0%" x2="100%" y2="100%">
      <stop offset="0%" style="stop-color:#D0CEC2;stop-opacity:0.95"/>
      <stop offset="50%" style="stop-color:#9BBCD0;stop-opacity:0.8"/>
      <stop offset="100%" style="stop-color:#96665C;stop-opacity:0.9"/>
    </linearGradient>
    
    <pattern id="meridianPattern" patternUnits="userSpaceOnUse" width="100" height="100">
      <circle cx="50" cy="50" r="40" stroke="#96665C" stroke-width="0.5" fill="none" opacity="0.1"/>
      <line x1="50" y1="10" x2="50" y2="90" stroke="#96665C" stroke-width="0.3" opacity="0.1"/>
      <line x1="10" y1="50" x2="90" y2="50" stroke="#9BBCD0" stroke-width="0.3" opacity="0.1"/>
    </pattern>
  </defs>
  
  <!-- Fondo principal -->
  <rect width="1200" height="600" fill="url(#heroGradient)"/>
  
  <!-- Patrón decorativo -->
  <rect width="1200" height="600" fill="url(#meridianPattern)"/>
  
  <!-- Elementos geométricos decorativos -->
  <g opacity="0.3">
    <!-- Círculos decorativos grandes -->
    <circle cx="150" cy="150" r="80" stroke="#96665C" stroke-width="2" fill="none"/>
    <circle cx="1050" cy="450" r="60" stroke="#9BBCD0" stroke-width="2" fill="none"/>
    <circle cx="300" cy="500" r="40" stroke="#D0CEC2" stroke-width="1.5" fill="none"/>
    
    <!-- Líneas meridiano decorativas -->
    <line x1="100" y1="100" x2="200" y2="200" stroke="#96665C" stroke-width="1" opacity="0.5"/>
    <line x1="1000" y1="100" x2="1100" y2="200" stroke="#9BBCD0" stroke-width="1" opacity="0.5"/>
    <line x1="50" y1="400" x2="150" y2="500" stroke="#D0CEC2" stroke-width="1" opacity="0.5"/>
  </g>
  
  <!-- Logo central como marca de agua -->
  <g transform="translate(550, 250)" opacity="0.1">
    <circle cx="50" cy="50" r="45" stroke="#96665C" stroke-width="3" fill="none"/>
    <line x1="50" y1="5" x2="50" y2="95" stroke="#96665C" stroke-width="3"/>
    <line x1="5" y1="50" x2="95" y2="50" stroke="#9BBCD0" stroke-width="2"/>
    <circle cx="50" cy="50" r="8" fill="#96665C"/>
  </g>
</svg>